<?xml version="1.0" standalone="no"?>
<!DOCTYPE svg PUBLIC "-//W3C//DTD SVG 20010904//EN"
 "http://www.w3.org/TR/2001/REC-SVG-20010904/DTD/svg10.dtd">
<svg version="1.0" xmlns="http://www.w3.org/2000/svg"
 width="368.000000pt" height="350.000000pt" viewBox="0 0 368.000000 350.000000"
 preserveAspectRatio="xMidYMid meet">

<g transform="translate(0.000000,350.000000) scale(0.100000,-0.100000)"
fill="#000000" stroke="none">
<path d="M835 2630 c-11 -5 -37 -9 -59 -9 -35 -1 -38 -3 -32 -23 4 -13 10 -50
13 -83 4 -51 2 -64 -16 -85 -17 -21 -20 -22 -21 -7 0 9 -11 23 -25 29 -55 25
-90 -61 -41 -100 l24 -19 -28 -30 -29 -31 40 -6 c23 -4 63 -18 90 -31 l49 -25
12 25 c10 22 18 25 60 25 43 0 50 3 58 26 6 14 10 45 10 70 0 24 3 44 8 44 4
0 14 5 22 10 12 8 8 16 -22 47 -28 29 -40 52 -48 91 -10 55 -26 92 -38 91 -4
0 -16 -4 -27 -9z m25 -161 c0 -5 -7 -9 -15 -9 -15 0 -20 12 -9 23 8 8 24 -1
24 -14z"/>
<path d="M2742 2601 c-7 -4 -15 -32 -19 -62 -3 -30 -17 -73 -31 -97 -20 -35
-23 -51 -18 -85 4 -23 13 -51 20 -62 23 -36 27 -89 10 -130 -13 -32 -14 -47
-3 -106 l12 -69 66 0 c36 0 81 -4 99 -9 17 -5 32 -6 32 -1 0 9 -35 20 -69 20
-19 0 -22 4 -17 23 49 190 61 227 74 222 10 -4 12 0 6 12 -4 10 -9 55 -12 100
l-4 82 -59 37 c-57 35 -59 38 -59 80 0 45 -8 58 -28 45z"/>
<path d="M2420 2415 c0 -38 -4 -46 -37 -71 -21 -15 -42 -33 -48 -40 -5 -6 -22
-19 -36 -28 -24 -15 -27 -15 -47 6 -28 31 -42 71 -42 120 0 39 -1 40 -27 33
-36 -9 -53 -23 -53 -45 0 -38 -24 -81 -56 -101 -28 -17 -32 -24 -23 -35 7 -9
9 -29 5 -55 -8 -51 4 -67 56 -75 34 -6 41 -12 54 -45 l16 -37 51 15 c60 17
152 60 166 76 5 7 14 28 19 47 10 35 10 34 12 -20 l2 -55 23 50 24 50 0 -56
c1 -47 -3 -59 -24 -79 -20 -19 -25 -33 -25 -72 0 -26 4 -48 9 -48 16 0 59 62
78 111 13 34 17 78 17 196 1 92 -3 156 -9 162 -6 6 -32 17 -58 25 l-47 14 0
-43z m60 -25 c0 -13 -1 -13 -10 0 -5 8 -10 22 -10 30 0 13 1 13 10 0 5 -8 10
-22 10 -30z m-296 -81 c-9 -15 -34 -10 -28 5 3 8 12 12 20 9 8 -3 11 -9 8 -14z"/>
<path d="M1506 1894 c-9 -8 -21 -34 -27 -57 -6 -23 -36 -82 -68 -132 -45 -73
-62 -91 -86 -96 l-30 -7 32 -1 c23 -1 37 5 45 19 16 26 20 25 57 -6 l31 -26
21 24 c45 51 59 98 59 201 0 53 -4 97 -9 97 -5 0 -17 -7 -25 -16z"/>
<path d="M1890 1845 c0 -3 11 -28 25 -55 35 -68 55 -154 58 -239 1 -39 6 -71
11 -71 13 0 -1 156 -20 220 -22 75 -74 176 -74 145z"/>
<path d="M2724 1800 c3 -14 9 -73 13 -132 3 -60 8 -108 10 -108 8 0 109 68
148 100 l40 32 -65 -7 c-124 -14 -113 -19 -125 57 -5 37 -14 70 -19 75 -5 5
-6 -2 -2 -17z"/>
<path d="M1188 1613 c12 -2 30 -2 40 0 9 3 -1 5 -23 4 -22 0 -30 -2 -17 -4z"/>
<path d="M2333 1396 c-211 -72 -383 -134 -383 -138 -1 -50 247 -113 440 -112
77 1 130 6 160 16 139 49 155 57 168 81 7 15 15 83 19 156 5 109 4 131 -8 130
-8 -1 -186 -60 -396 -133z"/>
<path d="M1805 1270 c-11 -4 -29 -18 -40 -30 -11 -12 -37 -31 -58 -42 -22 -11
-37 -22 -34 -24 6 -7 66 23 90 44 17 15 18 15 13 -8 -17 -72 -56 -335 -52
-345 8 -22 56 -27 83 -10 18 12 28 14 36 6 6 -6 14 -11 19 -11 6 0 88 245 88
265 0 4 -6 5 -14 2 -9 -4 -16 3 -20 16 -3 12 -25 49 -48 83 -36 51 -47 60 -63
54z"/>
<path d="M366 683 c-8 -96 -8 -276 0 -297 5 -14 43 -16 325 -16 l319 0 0 181
0 182 -42 -7 c-316 -47 -420 -46 -522 2 -37 17 -69 32 -71 32 -1 0 -5 -34 -9
-77z"/>
</g>
</svg>
