<svg id="visual" viewBox="0 0 900 600" width="900" height="600" xmlns="http://www.w3.org/2000/svg" xmlns:xlink="http://www.w3.org/1999/xlink" version="1.1"><path d="M0 121L16.7 130C33.3 139 66.7 157 100 159C133.3 161 166.7 147 200 148C233.3 149 266.7 165 300 156C333.3 147 366.7 113 400 98C433.3 83 466.7 87 500 90C533.3 93 566.7 95 600 107C633.3 119 666.7 141 700 151C733.3 161 766.7 159 800 159C833.3 159 866.7 161 883.3 162L900 163L900 0L883.3 0C866.7 0 833.3 0 800 0C766.7 0 733.3 0 700 0C666.7 0 633.3 0 600 0C566.7 0 533.3 0 500 0C466.7 0 433.3 0 400 0C366.7 0 333.3 0 300 0C266.7 0 233.3 0 200 0C166.7 0 133.3 0 100 0C66.7 0 33.3 0 16.7 0L0 0Z" fill="#070e43"></path><path d="M0 217L16.7 220C33.3 223 66.7 229 100 231C133.3 233 166.7 231 200 237C233.3 243 266.7 257 300 246C333.3 235 366.7 199 400 181C433.3 163 466.7 163 500 171C533.3 179 566.7 195 600 205C633.3 215 666.7 219 700 218C733.3 217 766.7 211 800 220C833.3 229 866.7 253 883.3 265L900 277L900 161L883.3 160C866.7 159 833.3 157 800 157C766.7 157 733.3 159 700 149C666.7 139 633.3 117 600 105C566.7 93 533.3 91 500 88C466.7 85 433.3 81 400 96C366.7 111 333.3 145 300 154C266.7 163 233.3 147 200 146C166.7 145 133.3 159 100 157C66.7 155 33.3 137 16.7 128L0 119Z" fill="#162a80"></path><path d="M0 271L16.7 274C33.3 277 66.7 283 100 283C133.3 283 166.7 277 200 284C233.3 291 266.7 311 300 303C333.3 295 366.7 259 400 240C433.3 221 466.7 219 500 226C533.3 233 566.7 249 600 261C633.3 273 666.7 281 700 277C733.3 273 766.7 257 800 263C833.3 269 866.7 297 883.3 311L900 325L900 275L883.3 263C866.7 251 833.3 227 800 218C766.7 209 733.3 215 700 216C666.7 217 633.3 213 600 203C566.7 193 533.3 177 500 169C466.7 161 433.3 161 400 179C366.7 197 333.3 233 300 244C266.7 255 233.3 241 200 235C166.7 229 133.3 231 100 229C66.7 227 33.3 221 16.7 218L0 215Z" fill="#1b4ac5"></path><path d="M0 319L16.7 324C33.3 329 66.7 339 100 336C133.3 333 166.7 317 200 321C233.3 325 266.7 349 300 344C333.3 339 366.7 305 400 287C433.3 269 466.7 267 500 275C533.3 283 566.7 301 600 311C633.3 321 666.7 323 700 316C733.3 309 766.7 293 800 299C833.3 305 866.7 333 883.3 347L900 361L900 323L883.3 309C866.7 295 833.3 267 800 261C766.7 255 733.3 271 700 275C666.7 279 633.3 271 600 259C566.7 247 533.3 231 500 224C466.7 217 433.3 219 400 238C366.7 257 333.3 293 300 301C266.7 309 233.3 289 200 282C166.7 275 133.3 281 100 281C66.7 281 33.3 275 16.7 272L0 269Z" fill="#0066ff"></path><path d="M0 385L16.7 388C33.3 391 66.7 397 100 394C133.3 391 166.7 379 200 380C233.3 381 266.7 395 300 391C333.3 387 366.7 365 400 354C433.3 343 466.7 343 500 348C533.3 353 566.7 363 600 373C633.3 383 666.7 393 700 393C733.3 393 766.7 383 800 388C833.3 393 866.7 413 883.3 423L900 433L900 359L883.3 345C866.7 331 833.3 303 800 297C766.7 291 733.3 307 700 314C666.7 321 633.3 319 600 309C566.7 299 533.3 281 500 273C466.7 265 433.3 267 400 285C366.7 303 333.3 337 300 342C266.7 347 233.3 323 200 319C166.7 315 133.3 331 100 334C66.7 337 33.3 327 16.7 322L0 317Z" fill="#0066ff"></path><path d="M0 439L16.7 445C33.3 451 66.7 463 100 457C133.3 451 166.7 427 200 422C233.3 417 266.7 431 300 430C333.3 429 366.7 413 400 404C433.3 395 466.7 393 500 395C533.3 397 566.7 403 600 415C633.3 427 666.7 445 700 450C733.3 455 766.7 447 800 449C833.3 451 866.7 463 883.3 469L900 475L900 431L883.3 421C866.7 411 833.3 391 800 386C766.7 381 733.3 391 700 391C666.7 391 633.3 381 600 371C566.7 361 533.3 351 500 346C466.7 341 433.3 341 400 352C366.7 363 333.3 385 300 389C266.7 393 233.3 379 200 378C166.7 377 133.3 389 100 392C66.7 395 33.3 389 16.7 386L0 383Z" fill="#1b4ac5"></path><path d="M0 565L16.7 567C33.3 569 66.7 573 100 574C133.3 575 166.7 573 200 570C233.3 567 266.7 563 300 559C333.3 555 366.7 551 400 549C433.3 547 466.7 547 500 547C533.3 547 566.7 547 600 551C633.3 555 666.7 563 700 568C733.3 573 766.7 575 800 575C833.3 575 866.7 573 883.3 572L900 571L900 473L883.3 467C866.7 461 833.3 449 800 447C766.7 445 733.3 453 700 448C666.7 443 633.3 425 600 413C566.7 401 533.3 395 500 393C466.7 391 433.3 393 400 402C366.7 411 333.3 427 300 428C266.7 429 233.3 415 200 420C166.7 425 133.3 449 100 455C66.7 461 33.3 449 16.7 443L0 437Z" fill="#162a80"></path><path d="M0 601L16.7 601C33.3 601 66.7 601 100 601C133.3 601 166.7 601 200 601C233.3 601 266.7 601 300 601C333.3 601 366.7 601 400 601C433.3 601 466.7 601 500 601C533.3 601 566.7 601 600 601C633.3 601 666.7 601 700 601C733.3 601 766.7 601 800 601C833.3 601 866.7 601 883.3 601L900 601L900 569L883.3 570C866.7 571 833.3 573 800 573C766.7 573 733.3 571 700 566C666.7 561 633.3 553 600 549C566.7 545 533.3 545 500 545C466.7 545 433.3 545 400 547C366.7 549 333.3 553 300 557C266.7 561 233.3 565 200 568C166.7 571 133.3 573 100 572C66.7 571 33.3 567 16.7 565L0 563Z" fill="#070e43"></path></svg>