<svg id="visual" viewBox="0 0 900 600" width="900" height="600" xmlns="http://www.w3.org/2000/svg" xmlns:xlink="http://www.w3.org/1999/xlink" version="1.1"><path d="M0 43L16.7 51C33.3 59 66.7 75 100 79C133.3 83 166.7 75 200 75C233.3 75 266.7 83 300 81C333.3 79 366.7 67 400 60C433.3 53 466.7 51 500 53C533.3 55 566.7 61 600 69C633.3 77 666.7 87 700 88C733.3 89 766.7 81 800 73C833.3 65 866.7 57 883.3 53L900 49L900 0L883.3 0C866.7 0 833.3 0 800 0C766.7 0 733.3 0 700 0C666.7 0 633.3 0 600 0C566.7 0 533.3 0 500 0C466.7 0 433.3 0 400 0C366.7 0 333.3 0 300 0C266.7 0 233.3 0 200 0C166.7 0 133.3 0 100 0C66.7 0 33.3 0 16.7 0L0 0Z" fill="#070e43"></path><path d="M0 91L16.7 98C33.3 105 66.7 119 100 123C133.3 127 166.7 121 200 124C233.3 127 266.7 139 300 135C333.3 131 366.7 111 400 107C433.3 103 466.7 115 500 121C533.3 127 566.7 127 600 133C633.3 139 666.7 151 700 153C733.3 155 766.7 147 800 139C833.3 131 866.7 123 883.3 119L900 115L900 47L883.3 51C866.7 55 833.3 63 800 71C766.7 79 733.3 87 700 86C666.7 85 633.3 75 600 67C566.7 59 533.3 53 500 51C466.7 49 433.3 51 400 58C366.7 65 333.3 77 300 79C266.7 81 233.3 73 200 73C166.7 73 133.3 81 100 77C66.7 73 33.3 57 16.7 49L0 41Z" fill="#182f8b"></path><path d="M0 187L16.7 188C33.3 189 66.7 191 100 189C133.3 187 166.7 181 200 189C233.3 197 266.7 219 300 216C333.3 213 366.7 185 400 188C433.3 191 466.7 225 500 230C533.3 235 566.7 211 600 213C633.3 215 666.7 243 700 243C733.3 243 766.7 215 800 209C833.3 203 866.7 219 883.3 227L900 235L900 113L883.3 117C866.7 121 833.3 129 800 137C766.7 145 733.3 153 700 151C666.7 149 633.3 137 600 131C566.7 125 533.3 125 500 119C466.7 113 433.3 101 400 105C366.7 109 333.3 129 300 133C266.7 137 233.3 125 200 122C166.7 119 133.3 125 100 121C66.7 117 33.3 103 16.7 96L0 89Z" fill="#1755dc"></path><path d="M0 331L16.7 334C33.3 337 66.7 343 100 345C133.3 347 166.7 345 200 349C233.3 353 266.7 363 300 351C333.3 339 366.7 305 400 304C433.3 303 466.7 335 500 353C533.3 371 566.7 375 600 386C633.3 397 666.7 415 700 416C733.3 417 766.7 401 800 382C833.3 363 866.7 341 883.3 330L900 319L900 233L883.3 225C866.7 217 833.3 201 800 207C766.7 213 733.3 241 700 241C666.7 241 633.3 213 600 211C566.7 209 533.3 233 500 228C466.7 223 433.3 189 400 186C366.7 183 333.3 211 300 214C266.7 217 233.3 195 200 187C166.7 179 133.3 185 100 187C66.7 189 33.3 187 16.7 186L0 185Z" fill="#0066ff"></path><path d="M0 385L16.7 388C33.3 391 66.7 397 100 395C133.3 393 166.7 383 200 383C233.3 383 266.7 393 300 384C333.3 375 366.7 347 400 347C433.3 347 466.7 375 500 391C533.3 407 566.7 411 600 421C633.3 431 666.7 447 700 452C733.3 457 766.7 451 800 436C833.3 421 866.7 397 883.3 385L900 373L900 317L883.3 328C866.7 339 833.3 361 800 380C766.7 399 733.3 415 700 414C666.7 413 633.3 395 600 384C566.7 373 533.3 369 500 351C466.7 333 433.3 301 400 302C366.7 303 333.3 337 300 349C266.7 361 233.3 351 200 347C166.7 343 133.3 345 100 343C66.7 341 33.3 335 16.7 332L0 329Z" fill="#1755dc"></path><path d="M0 547L16.7 549C33.3 551 66.7 555 100 552C133.3 549 166.7 539 200 538C233.3 537 266.7 545 300 552C333.3 559 366.7 565 400 566C433.3 567 466.7 563 500 557C533.3 551 566.7 543 600 545C633.3 547 666.7 559 700 561C733.3 563 766.7 555 800 551C833.3 547 866.7 547 883.3 547L900 547L900 371L883.3 383C866.7 395 833.3 419 800 434C766.7 449 733.3 455 700 450C666.7 445 633.3 429 600 419C566.7 409 533.3 405 500 389C466.7 373 433.3 345 400 345C366.7 345 333.3 373 300 382C266.7 391 233.3 381 200 381C166.7 381 133.3 391 100 393C66.7 395 33.3 389 16.7 386L0 383Z" fill="#182f8b"></path><path d="M0 601L16.7 601C33.3 601 66.7 601 100 601C133.3 601 166.7 601 200 601C233.3 601 266.7 601 300 601C333.3 601 366.7 601 400 601C433.3 601 466.7 601 500 601C533.3 601 566.7 601 600 601C633.3 601 666.7 601 700 601C733.3 601 766.7 601 800 601C833.3 601 866.7 601 883.3 601L900 601L900 545L883.3 545C866.7 545 833.3 545 800 549C766.7 553 733.3 561 700 559C666.7 557 633.3 545 600 543C566.7 541 533.3 549 500 555C466.7 561 433.3 565 400 564C366.7 563 333.3 557 300 550C266.7 543 233.3 535 200 536C166.7 537 133.3 547 100 550C66.7 553 33.3 549 16.7 547L0 545Z" fill="#070e43"></path></svg>